<?xml version="1.0" standalone="no"?>
<!DOCTYPE svg PUBLIC "-//W3C//DTD SVG 20010904//EN"
 "http://www.w3.org/TR/2001/REC-SVG-20010904/DTD/svg10.dtd">
<svg version="1.0" xmlns="http://www.w3.org/2000/svg"
 width="149.000000pt" height="149.000000pt" viewBox="0 0 149.000000 149.000000"
 preserveAspectRatio="xMidYMid meet">
<metadata>
Created by potrace 1.11, written by Peter Selinger 2001-2013
</metadata>
<g transform="translate(0.000000,149.000000) scale(0.100000,-0.100000)"
fill="#000000" stroke="none">
<path d="M590 1479 c-196 -23 -326 -59 -483 -131 l-87 -41 0 -623 c0 -343 2
-624 4 -624 2 0 40 16 85 34 83 36 188 70 276 90 l50 11 2 63 c2 59 1 62 -21
62 -13 0 -68 -12 -122 -26 -55 -14 -108 -28 -120 -31 l-20 -5 0 479 c1 263 4
483 9 490 14 22 229 93 327 108 25 4 56 9 70 12 14 2 72 6 130 7 92 3 149 -1
262 -18 27 -4 27 -4 27 59 l0 63 -36 7 c-99 18 -263 25 -353 14z"/>
<path d="M1391 1388 c-89 -41 -222 -84 -338 -110 -114 -24 -402 -34 -491 -16
-29 6 -55 8 -59 5 -3 -4 -6 -281 -7 -617 -1 -603 -1 -611 19 -616 71 -17 148
-23 280 -20 119 3 175 9 270 31 122 27 250 72 341 118 l51 26 0 615 c0 339 -1
616 -1 615 -1 0 -30 -14 -65 -31z m-71 -213 c1 -95 1 -699 0 -812 l0 -98 -66
-28 c-36 -15 -120 -42 -187 -59 -109 -28 -138 -31 -277 -32 l-155 -1 0 499 0
498 145 3 c80 2 163 6 185 10 91 13 234 46 285 64 30 11 58 20 63 20 4 1 7
-28 7 -64z"/>
</g>
</svg>
